<svg width="729" height="546" viewBox="0 0 729 546" fill="none" xmlns="http://www.w3.org/2000/svg">
<path fill-rule="evenodd" clip-rule="evenodd" d="M94.8748 274.082C82.6691 246.055 87.9366 216.149 95.2044 185.222C119.119 83.7569 200.184 12.5833 316.465 14.4979C496.894 17.6739 679.438 146.226 706.079 304.471C712.025 339.493 724.539 384.633 693.673 438.124C664.981 487.872 613.385 512.704 559.653 523.99C504.607 535.652 447.259 533.266 408.433 527.88C238.94 504.202 36.1918 387.12 15.4235 198.366C14.9193 194.525 11.2771 192.283 7.20256 193.189C3.12804 194.095 0.0965142 197.69 0.482304 201.299C21.8734 395.589 229.903 517.005 404.34 541.383C452.727 548.044 528.924 550.187 595.346 528.044C640.704 512.83 681.552 486.452 706.727 443.179C739.655 386.296 727.137 337.938 720.857 300.744C693.375 137.366 505.037 4.15936 318.768 1.03254C193.744 -1.10967 106.323 75.0559 80.6383 184.156C72.6458 217.501 67.5843 249.938 80.8371 280.359C82.3005 283.711 86.6286 285.016 90.4048 283.092C94.2995 281.4 96.2197 277.202 94.8748 274.082Z" fill="#ADFF2F"/>
</svg>
